<?xml version="1.0" standalone="no"?>
<!DOCTYPE svg PUBLIC "-//W3C//DTD SVG 20010904//EN"
 "http://www.w3.org/TR/2001/REC-SVG-20010904/DTD/svg10.dtd">
<svg version="1.0" xmlns="http://www.w3.org/2000/svg"
 width="521.000000pt" height="521.000000pt" viewBox="0 0 521.000000 521.000000"
 preserveAspectRatio="xMidYMid meet">
<metadata>
Created by potrace 1.11, written by Peter Selinger 2001-2013
</metadata>
<g transform="translate(0.000000,521.000000) scale(0.100000,-0.100000)"
fill="#000000" stroke="none">
<path d="M0 2605 l0 -2605 2605 0 2605 0 0 2605 0 2605 -2605 0 -2605 0 0
-2605z m2302 -845 c274 -778 498 -1418 498 -1423 0 -4 -100 -6 -222 -5 l-222
3 -107 305 -107 305 -570 3 -570 2 -52 -147 c-28 -82 -77 -221 -108 -310 l-56
-163 -204 0 c-159 0 -203 3 -199 13 2 6 226 648 498 1425 l494 1412 214 -2
215 -3 498 -1415z m1658 1349 c157 -14 329 -50 425 -88 356 -143 577 -502 634
-1033 15 -138 13 -424 -4 -553 -47 -352 -174 -627 -381 -826 -152 -145 -299
-212 -556 -255 -85 -14 -193 -18 -630 -21 l-528 -5 0 1396 0 1396 463 0 c254
0 514 -5 577 -11z"/>
<path d="M1525 2462 c-21 -75 -125 -382 -231 -682 l-192 -545 233 -3 c129 -1
341 -1 472 0 l239 3 -188 520 c-103 286 -211 592 -238 680 -28 87 -52 160 -54
162 -1 2 -20 -59 -41 -135z"/>
<path d="M3350 1740 l0 -1103 263 6 c288 5 383 17 516 66 195 71 331 225 404
456 99 315 94 919 -9 1193 -73 195 -221 354 -388 417 -120 45 -219 57 -513 62
l-273 5 0 -1102z"/>
</g>
</svg>
